# xmcd
#
# Track frame offsets:
#  150
#  15873
#  32139
#  42979
#  68417
#  81379
#  100424
#  119184
#  140282
#  158845
#  181530
#  198106
#  225473
#
# Disc length: 3324 seconds
#
# Revision: 2
# Processed by: cddbd v1.5.1PL0 Copyright (c) Steve Scherf et al.
# Submitted via: Collectorz.com_Music_Collector 6.9
#
DISCID=9c0cfa0d
DTITLE=The Johnny Max Band - Ride And Roll
DYEAR=2005
DGENRE=Blues
TTITLE0=Please Don't Go
TTITLE1=Brown's Line
TTITLE2=Ride and Roll
TTITLE3=Angel Of Mercy
TTITLE4=Watcha Gonna Do
TTITLE5=Walking In Jerusalem
TTITLE6=Long Gone Train
TTITLE7=I Heard A Rumour
TTITLE8=Mad At Me
TTITLE9=Shake 'Em On Down
TTITLE10=Mimico Bus
TTITLE11=Junko Partner
TTITLE12=I Like Women
EXTD=
EXTT0=
EXTT1=
EXTT2=
EXTT3=
EXTT4=
EXTT5=
EXTT6=
EXTT7=
EXTT8=
EXTT9=
EXTT10=
EXTT11=
EXTT12=
PLAYORDER=
